<svg width="17" height="11" viewBox="0 0 17 11" fill="none" xmlns="http://www.w3.org/2000/svg">
<g clip-path="url(#clip0_32_564)">
<mask id="mask0_32_564" style="mask-type:luminance" maskUnits="userSpaceOnUse" x="0" y="0" width="17" height="11">
<path d="M0.239014 5.2308C0.239014 7.96902 3.93765 10.1888 8.49997 10.1888C13.0623 10.1888 16.761 7.96902 16.761 5.2308C16.761 2.4926 13.0623 0.272748 8.49997 0.272748C3.93765 0.272748 0.239014 2.4926 0.239014 5.2308Z" fill="white"/>
</mask>
<g mask="url(#mask0_32_564)">
<path d="M0.239014 5.2308C0.239014 7.96902 3.93765 10.1888 8.49997 10.1888C13.0623 10.1888 16.761 7.96902 16.761 5.2308C16.761 2.4926 13.0623 0.272748 8.49997 0.272748C3.93765 0.272748 0.239014 2.4926 0.239014 5.2308Z" fill="url(#paint0_radial_32_564)"/>
</g>
<mask id="mask1_32_564" style="mask-type:luminance" maskUnits="userSpaceOnUse" x="-1" y="-1" width="19" height="12">
<path d="M-0.105164 -0.291812H17.1052V10.7534H-0.105164V-0.291812Z" fill="white"/>
</mask>
<g mask="url(#mask1_32_564)">
<path d="M8.49997 9.82068C12.8841 9.82068 16.4382 7.76569 16.4382 5.23074C16.4382 2.69582 12.8841 0.640796 8.49997 0.640796C4.11585 0.640796 0.561707 2.69582 0.561707 5.23074C0.561707 7.76569 4.11585 9.82068 8.49997 9.82068Z" fill="#777BB3"/>
</g>
<mask id="mask2_32_564" style="mask-type:luminance" maskUnits="userSpaceOnUse" x="-1" y="-1" width="19" height="12">
<path d="M-0.105164 -0.291812H17.1052V10.7534H-0.105164V-0.291812Z" fill="white"/>
</mask>
<g mask="url(#mask2_32_564)">
<path d="M4.72735 5.79988C5.08784 5.79988 5.35696 5.72403 5.52724 5.57451C5.6957 5.42653 5.81205 5.17014 5.87303 4.8125C5.92989 4.47821 5.90823 4.24479 5.80867 4.11883C5.70688 3.99017 5.48679 3.92492 5.15453 3.92492H4.57844L4.25906 5.79988H4.72735ZM2.84309 8.1095C2.81635 8.1095 2.79095 8.09586 2.77395 8.07227C2.75692 8.04871 2.75002 8.01769 2.75513 7.98773L3.60154 3.01904C3.60973 2.97101 3.64663 2.93631 3.68953 2.93631H5.51377C6.08709 2.93631 6.51382 3.11392 6.78204 3.46426C7.0517 3.81645 7.13497 4.30874 7.02953 4.92745C6.98663 5.17951 6.91282 5.41361 6.81019 5.6232C6.70744 5.83302 6.57164 6.02716 6.40649 6.20034C6.20881 6.41143 5.98508 6.56449 5.7421 6.65456C5.50298 6.74343 5.19589 6.7885 4.82936 6.7885H4.09069L3.87974 8.02673C3.87156 8.07479 3.83469 8.1095 3.79178 8.1095H2.84309Z" fill="black"/>
<path d="M4.65231 4.02722H5.15452C5.55552 4.02722 5.69482 4.12761 5.74215 4.18744C5.82067 4.28678 5.83549 4.49623 5.78502 4.79312C5.72831 5.1255 5.6232 5.36117 5.47255 5.49351C5.31831 5.62898 5.06757 5.69764 4.72733 5.69764H4.36777L4.65231 4.02722ZM5.51375 2.83406H3.68949C3.60367 2.83406 3.5299 2.90347 3.51353 2.99957L2.66712 7.96825C2.6569 8.02822 2.6707 8.09023 2.70473 8.13737C2.7388 8.18452 2.78953 8.21179 2.84307 8.21179H3.79173C3.87758 8.21179 3.95135 8.14238 3.96772 8.04628L4.16456 6.8908H4.82934C5.20528 6.8908 5.52176 6.84402 5.7699 6.75181C6.0251 6.65721 6.25989 6.49682 6.4677 6.27509C6.63956 6.09469 6.78113 5.89219 6.88839 5.67316C6.99569 5.45406 7.07278 5.20974 7.11751 4.94697C7.22851 4.29571 7.13833 3.7742 6.84952 3.39703C6.56352 3.02347 6.11408 2.83406 5.51375 2.83406ZM4.15028 5.90218H4.72733C5.10982 5.90218 5.39471 5.81999 5.5819 5.65557C5.76913 5.49112 5.8954 5.21666 5.96101 4.83205C6.02379 4.46279 5.99519 4.2022 5.87523 4.0504C5.75511 3.8986 5.51492 3.82268 5.15452 3.82268H4.50453L4.15028 5.90218ZM5.51375 3.0386C6.06254 3.0386 6.46289 3.20292 6.71453 3.53158C6.96614 3.86024 7.04191 4.319 6.94152 4.90797C6.9002 5.15059 6.83031 5.37242 6.73192 5.57338C6.63341 5.77448 6.50478 5.95836 6.34582 6.1251C6.15639 6.32735 5.94595 6.47149 5.71439 6.55733C5.48283 6.6434 5.18789 6.68625 4.82934 6.68625H4.01675L3.79173 8.00725H2.84307L3.68949 3.0386H5.51375Z" fill="white"/>
<path d="M9.20467 6.78857C9.1779 6.78857 9.15253 6.77494 9.13553 6.75135C9.11847 6.72779 9.11156 6.6968 9.11667 6.6668L9.49109 4.46836C9.5267 4.25928 9.51792 4.10922 9.46638 4.04581C9.43483 4.00705 9.34005 3.94204 9.05981 3.94204H8.3815L7.91076 6.7058C7.90257 6.75387 7.86567 6.78857 7.82276 6.78857H6.88157C6.8548 6.78857 6.82943 6.77494 6.8124 6.75135C6.79537 6.72779 6.78847 6.69677 6.79358 6.6668L7.63999 1.69812C7.64818 1.65009 7.68508 1.61538 7.72799 1.61538H8.66918C8.69595 1.61538 8.72131 1.62902 8.73835 1.65258C8.75538 1.67617 8.76228 1.70715 8.75717 1.73715L8.55292 2.93638H9.28262C9.83852 2.93638 10.2155 3.0482 10.435 3.27824C10.6588 3.51291 10.7286 3.88814 10.6426 4.39363L10.2488 6.7058C10.2406 6.75387 10.2037 6.78857 10.1608 6.78857H9.20467Z" fill="black"/>
<path d="M8.66916 1.51302H7.72797C7.64213 1.51302 7.56835 1.58242 7.55198 1.67852L6.70557 6.64721C6.69535 6.70717 6.70915 6.76918 6.74322 6.81633C6.77728 6.86347 6.82801 6.89075 6.88156 6.89075H7.82274C7.90856 6.89075 7.98236 6.82134 7.99873 6.72524L8.45537 4.04421H9.0598C9.33955 4.04421 9.39827 4.11239 9.40063 4.11533C9.4176 4.13616 9.43992 4.23263 9.40308 4.44876L9.02866 6.64721C9.01844 6.70717 9.03225 6.76918 9.06631 6.81633C9.10037 6.86347 9.15111 6.89075 9.20465 6.89075H10.1608C10.2466 6.89075 10.3204 6.82134 10.3368 6.72524L10.7305 4.41307C10.823 3.87032 10.7439 3.46318 10.4957 3.20287C10.2588 2.95466 9.86199 2.83401 9.2826 2.83401H8.6616L8.84514 1.75659C8.85533 1.69663 8.84156 1.63458 8.8075 1.58747C8.77344 1.54032 8.7227 1.51302 8.66916 1.51302ZM8.66916 1.71756L8.44414 3.03855H9.2826C9.81018 3.03855 10.1741 3.14362 10.3744 3.35348C10.5746 3.56347 10.6346 3.90373 10.5546 4.37407L10.1608 6.68621H9.20465L9.57906 4.4878C9.62167 4.23771 9.60601 4.06712 9.53203 3.97617C9.45802 3.88522 9.30059 3.83967 9.0598 3.83967H8.30756L7.82274 6.68621H6.88156L7.72797 1.71756H8.66916Z" fill="white"/>
<path d="M12.1318 5.79988C12.4923 5.79988 12.7614 5.72403 12.9317 5.57451C13.1002 5.42656 13.2165 5.17017 13.2775 4.8125C13.3344 4.47821 13.3127 4.24479 13.2132 4.11883C13.1114 3.99017 12.8913 3.92492 12.559 3.92492H11.9829L11.6635 5.79988H12.1318ZM10.2476 8.1095C10.2209 8.1095 10.1955 8.09586 10.1785 8.07227C10.1614 8.04871 10.1545 8.01769 10.1596 7.98773L11.006 3.01904C11.0142 2.97101 11.0511 2.93631 11.094 2.93631H12.9182C13.4916 2.93631 13.9183 3.11392 14.1865 3.46426C14.4562 3.81641 14.5395 4.30871 14.434 4.92745C14.3911 5.17951 14.3173 5.41361 14.2147 5.6232C14.1119 5.83302 13.9761 6.02716 13.811 6.20034C13.6133 6.41143 13.3896 6.56449 13.1466 6.65456C12.9075 6.74343 12.6004 6.7885 12.2338 6.7885H11.4951L11.2843 8.02673C11.2761 8.07479 11.2392 8.1095 11.1963 8.1095H10.2476Z" fill="black"/>
<path d="M12.0568 4.02722H12.559C12.96 4.02722 13.0993 4.12761 13.1467 4.18744C13.2252 4.28678 13.24 4.49623 13.1895 4.79309C13.1328 5.1255 13.0277 5.36117 12.8771 5.49351C12.7228 5.62898 12.4721 5.69764 12.1318 5.69764H11.7723L12.0568 4.02722ZM12.9183 2.83406H11.094C11.0082 2.83406 10.9344 2.90347 10.9181 2.99957L10.0717 7.96825C10.0614 8.02822 10.0752 8.09023 10.1093 8.13737C10.1433 8.18452 10.1941 8.21179 10.2476 8.21179H11.1963C11.2821 8.21179 11.3559 8.14238 11.3723 8.04628L11.5691 6.8908H12.2339C12.6098 6.8908 12.9263 6.84402 13.1744 6.75181C13.4296 6.65721 13.6645 6.49678 13.8723 6.27502C14.0441 6.09465 14.1856 5.89219 14.2929 5.67316C14.4002 5.45406 14.4773 5.20974 14.522 4.94697C14.633 4.29568 14.5428 3.77417 14.254 3.39699C13.968 3.02347 13.5186 2.83406 12.9183 2.83406ZM11.5548 5.90218H12.1318C12.5143 5.90218 12.7992 5.81999 12.9864 5.65557C13.1737 5.49112 13.2999 5.21666 13.3655 4.83205C13.4283 4.46279 13.3997 4.2022 13.2797 4.0504C13.1596 3.8986 12.9194 3.82268 12.559 3.82268H11.909L11.5548 5.90218ZM12.9183 3.0386C13.467 3.0386 13.8674 3.20292 14.119 3.53158C14.3707 3.86024 14.4464 4.319 14.346 4.90797C14.3047 5.15059 14.2348 5.37242 14.1364 5.57338C14.0379 5.77448 13.9093 5.95836 13.7503 6.1251C13.5609 6.32735 13.3505 6.47149 13.1189 6.55733C12.8873 6.6434 12.5924 6.68625 12.2339 6.68625H11.4213L11.1963 8.00725H10.2476L11.094 3.0386H12.9183Z" fill="white"/>
</g>
</g>
<defs>
<radialGradient id="paint0_radial_32_564" cx="0" cy="0" r="1" gradientUnits="userSpaceOnUse" gradientTransform="translate(5.19893 2.01584) scale(10.8478 12.3767)">
<stop stop-color="#AEB2D5"/>
<stop offset="0.3" stop-color="#AEB2D5"/>
<stop offset="0.75" stop-color="#484C89"/>
<stop offset="1" stop-color="#484C89"/>
</radialGradient>
<clipPath id="clip0_32_564">
<rect width="17" height="10.4615" fill="white"/>
</clipPath>
</defs>
</svg>
