<svg width="14" height="16" viewBox="0 0 14 16" fill="none" xmlns="http://www.w3.org/2000/svg">
<g clip-path="url(#clip0_32_551)">
<path d="M6.26312 0.000104837C5.74039 0.00253373 5.24119 0.0471155 4.80194 0.12484C3.50798 0.35344 3.27305 0.83192 3.27305 1.71432V2.8797H6.33084V3.26816H3.27305H2.12549C1.23681 3.26816 0.458657 3.80231 0.215261 4.81844C-0.0654934 5.98316 -0.0779463 6.70996 0.215261 7.92612C0.432619 8.83138 0.951701 9.4764 1.84038 9.4764H2.89172V8.07936C2.89172 7.07009 3.76496 6.17983 4.80194 6.17983H7.85617C8.70635 6.17983 9.38506 5.47981 9.38506 4.62599V1.71432C9.38506 0.885641 8.68598 0.263143 7.85617 0.12484C7.33088 0.0373998 6.78586 -0.00232409 6.26312 0.000104837ZM4.60949 0.937399C4.92534 0.937399 5.18328 1.19954 5.18328 1.52187C5.18327 1.84306 4.92534 2.10278 4.60949 2.10278C4.29251 2.10278 4.03571 1.84306 4.03571 1.52187C4.03571 1.19954 4.29251 0.937399 4.60949 0.937399Z" fill="url(#paint0_linear_32_551)"/>
<path d="M9.76642 3.26819V4.62602C9.76642 5.67872 8.87392 6.56475 7.85619 6.56475H4.80197C3.96536 6.56475 3.27307 7.28077 3.27307 8.1186V11.0303C3.27307 11.8589 3.99366 12.3464 4.80197 12.5841C5.76989 12.8687 6.69808 12.9201 7.85619 12.5841C8.626 12.3612 9.38508 11.9127 9.38508 11.0303V9.86488H6.33086V9.47642H9.38508H10.914C11.8027 9.47642 12.1338 8.85655 12.4429 7.92615C12.7621 6.96831 12.7485 6.04719 12.4429 4.81847C12.2232 3.93378 11.8038 3.26819 10.914 3.26819H9.76642ZM8.04864 10.6418C8.36562 10.6418 8.62242 10.9015 8.62242 11.2227C8.62242 11.545 8.36562 11.8072 8.04864 11.8072C7.73279 11.8072 7.47486 11.545 7.47486 11.2227C7.47486 10.9015 7.73279 10.6418 8.04864 10.6418Z" fill="url(#paint1_linear_32_551)"/>
<path opacity="0.44382" d="M6.36551 15.358C8.6286 15.358 10.4632 15.0022 10.4632 14.5634C10.4632 14.1245 8.6286 13.7688 6.36551 13.7688C4.10242 13.7688 2.26782 14.1245 2.26782 14.5634C2.26782 15.0022 4.10242 15.358 6.36551 15.358Z" fill="url(#paint2_radial_32_551)"/>
</g>
<defs>
<linearGradient id="paint0_linear_32_551" x1="-3.80773e-08" y1="-3.30767e-08" x2="7.05092" y2="6.00836" gradientUnits="userSpaceOnUse">
<stop stop-color="#5A9FD4"/>
<stop offset="1" stop-color="#306998"/>
</linearGradient>
<linearGradient id="paint1_linear_32_551" x1="7.97515" y1="11.1247" x2="5.44555" y2="7.58001" gradientUnits="userSpaceOnUse">
<stop stop-color="#FFD43B"/>
<stop offset="1" stop-color="#FFE873"/>
</linearGradient>
<radialGradient id="paint2_radial_32_551" cx="0" cy="0" r="1" gradientUnits="userSpaceOnUse" gradientTransform="translate(6.36551 14.5634) rotate(-90) scale(0.794577 3.4925)">
<stop stop-color="#B8B8B8" stop-opacity="0.498039"/>
<stop offset="1" stop-color="#7F7F7F" stop-opacity="0"/>
</radialGradient>
<clipPath id="clip0_32_551">
<rect width="14" height="15.358" fill="white"/>
</clipPath>
</defs>
</svg>
