<svg width="20" height="18" viewBox="0 0 20 18" fill="none" xmlns="http://www.w3.org/2000/svg">
<path d="M1.76109 15.1873L7.89012 16.6952C8.52036 16.8502 9.12903 16.3732 9.12903 15.7241V10.3333V3.78379C9.12903 3.32353 8.81487 2.92271 8.36794 2.81275L2.23891 1.30481C1.60867 1.14975 1 1.62682 1 2.27585V14.2162C1 14.6765 1.31416 15.0773 1.76109 15.1873Z" stroke="black" stroke-linecap="round"/>
<path d="M17.7439 1.33282L12.1955 2.8029C11.757 2.91909 11.4516 3.3159 11.4516 3.76955V10.3333V15.7005C11.4516 16.3569 12.0733 16.8353 12.7077 16.6672L18.2561 15.1971C18.6946 15.0809 19 14.6841 19 14.2305V2.29946C19 1.64309 18.3784 1.16471 17.7439 1.33282Z" stroke="black" stroke-linecap="round"/>
</svg>
