<svg width="21" height="20" viewBox="0 0 21 20" fill="none" xmlns="http://www.w3.org/2000/svg">
<path fill-rule="evenodd" clip-rule="evenodd" d="M5.27483 17.3502C6.00561 17.3502 6.60026 17.9438 6.60026 18.6746C6.60026 19.4053 6.00561 20 5.27483 20C4.54406 20 3.95043 19.4053 3.95043 18.6746C3.95043 17.9438 4.54406 17.3502 5.27483 17.3502ZM16.8202 17.3502C17.552 17.3502 18.1466 17.9438 18.1466 18.6746C18.1466 19.4053 17.552 20 16.8202 20C16.0894 20 15.4958 19.4053 15.4958 18.6746C15.4958 17.9438 16.0894 17.3502 16.8202 17.3502ZM0.898572 0.00970994L3.02744 0.378168C3.37031 0.438554 3.6313 0.723086 3.66099 1.07107L3.90151 3.93788L4.79589 3.93827C4.94183 3.93833 5.08623 3.9384 5.2291 3.93846L6.8711 3.93924C7.00199 3.93931 7.13141 3.93937 7.25938 3.93944L9.07239 3.94043C9.18629 3.9405 9.29882 3.94057 9.41001 3.94064L10.6805 3.94145C10.7812 3.94151 10.8805 3.94158 10.9786 3.94165L12.0961 3.94247C12.1843 3.94254 12.2713 3.94261 12.3572 3.94268L13.3315 3.94352C13.4081 3.94359 13.4837 3.94366 13.5581 3.94373L14.1984 3.94437C14.2664 3.94444 14.3333 3.94451 14.3991 3.94458L15.1407 3.94544C15.1985 3.94551 15.2554 3.94558 15.3113 3.94566L15.9375 3.94653C15.986 3.9466 16.0337 3.94668 16.0804 3.94675L16.4784 3.94742C16.5201 3.94749 16.561 3.94756 16.601 3.94764L17.0443 3.94854C17.0782 3.94861 17.1114 3.94869 17.1438 3.94876L17.4166 3.94945C17.4449 3.94952 17.4724 3.9496 17.4993 3.94968L17.7918 3.9506C17.8137 3.95067 17.8351 3.95075 17.8558 3.95083L18.0276 3.95153C18.045 3.95161 18.0619 3.95169 18.0784 3.95177L18.2521 3.95271C18.2647 3.95279 18.2769 3.95287 18.2886 3.95295L18.3833 3.95367C18.3926 3.95375 18.4016 3.95383 18.4102 3.95391L18.4784 3.95464C18.485 3.95472 18.4912 3.9548 18.4972 3.95488L18.5436 3.95561C18.548 3.9557 18.5521 3.95578 18.556 3.95586L18.5853 3.9566C18.588 3.95669 18.5905 3.95677 18.5928 3.95685L18.6141 3.95785L18.6177 3.95811C18.6277 3.95904 18.6306 3.95938 18.6306 3.95938C19.2007 4.04228 19.7022 4.34012 20.0441 4.79864C20.3859 5.25615 20.5292 5.82009 20.4473 6.38506L19.476 13.0971C19.2928 14.3745 18.1834 15.3376 16.8938 15.3376H5.71616C4.36822 15.3376 3.22702 14.2854 3.11751 12.9395L2.17999 1.78957L0.637581 1.52346C0.218972 1.44977 -0.0604424 1.05367 0.0112022 0.635065C0.0848938 0.216456 0.489174 -0.0557937 0.898572 0.00970994ZM4.59056 5.47348L4.03047 5.47313L4.64763 12.8136C4.69267 13.3786 5.15426 13.8023 5.71821 13.8023H16.8917C17.4249 13.8023 17.8804 13.4052 17.9561 12.8781L18.9285 6.16501C18.951 6.00534 18.9111 5.84568 18.8138 5.71672C18.7176 5.58673 18.5764 5.50281 18.4167 5.48029C18.4093 5.48057 18.3917 5.48083 18.3642 5.48107L18.2529 5.4817C18.2296 5.4818 18.204 5.48189 18.1761 5.48197L17.5963 5.48285C17.5474 5.48289 17.4965 5.48292 17.4437 5.48294L16.0805 5.48289C16.0044 5.48286 15.9269 5.48283 15.848 5.48279L14.2922 5.48185C14.199 5.48178 14.1047 5.48171 14.0096 5.48164L13.1292 5.48093C13.0289 5.48085 12.9279 5.48076 12.8262 5.48067L11.8937 5.47985C11.7884 5.47976 11.6826 5.47966 11.5763 5.47957L10.934 5.47898C10.8262 5.47888 10.7181 5.47878 10.6098 5.47868L9.6296 5.47776C9.5203 5.47766 9.41094 5.47755 9.30158 5.47745L8.64588 5.47684C8.53676 5.47674 8.42776 5.47664 8.31895 5.47654L7.66882 5.47595C7.56101 5.47586 7.4535 5.47576 7.34637 5.47566L6.394 5.47484C6.28968 5.47476 6.18592 5.47467 6.08279 5.47459L4.87924 5.47367C4.78212 5.4736 4.68587 5.47354 4.59056 5.47348ZM15.2479 7.72103C15.6716 7.72103 16.0155 8.06492 16.0155 8.48865C16.0155 8.91238 15.6716 9.25627 15.2479 9.25627H12.4107C11.986 9.25627 11.6431 8.91238 11.6431 8.48865C11.6431 8.06492 11.986 7.72103 12.4107 7.72103H15.2479Z" fill="black"/>
</svg>
