<svg width="16" height="16" viewBox="0 0 16 16" fill="none" xmlns="http://www.w3.org/2000/svg">
<path d="M10.2858 9.41698L15.4903 4.19568C15.8159 3.86829 16 3.42113 16 2.95445V1.42311C16 0.462243 15.2376 0 14.2973 0H1.70272C0.76236 0 0 0.462243 0 1.42311V2.98196C0 3.42379 0.164107 3.84966 0.460194 4.17261L5.24187 9.38948C5.33218 9.48796 5.45808 9.54386 5.59093 9.54474L9.94801 9.55718C10.0739 9.55805 10.1955 9.50837 10.2858 9.41698Z" fill="white"/>
<path opacity="0.4" d="M5.38346 9.49841V15.3692C5.38346 15.583 5.49113 15.7844 5.6674 15.8997C5.76812 15.9663 5.88447 16 6.00082 16C6.08852 16 6.17621 15.9814 6.25783 15.9441L9.7831 14.301C10.0036 14.1989 10.1452 13.9745 10.1452 13.7269V9.49841H5.38346Z" fill="white"/>
</svg>
