<svg width="16" height="16" viewBox="0 0 16 16" fill="none" xmlns="http://www.w3.org/2000/svg">
<path d="M12.4351 16H10.8663C10.6048 16 10.3541 15.8964 10.1699 15.7121C9.98565 15.5279 9.8831 15.2783 9.88501 15.0187V12.5725C9.88501 12.2726 9.76501 11.985 9.55142 11.773C9.33784 11.561 9.04815 11.4418 8.74608 11.4418H6.44674C5.81773 11.4418 5.30782 11.948 5.30782 12.5725L12.4351 16ZM12.4351 16C13.1677 16.0019 13.871 15.7143 14.3897 15.2006C14.9085 14.687 15.2 13.9896 15.2 13.2623V6.29348C15.2 5.70597 14.9376 5.14867 14.4837 4.77173L12.4351 16ZM4.80782 12.5725V14.6574L4.78896 14.6637L4.78634 15.0221C4.78444 15.2832 4.56968 15.5 4.29783 15.5H2.76494C1.5106 15.5 0.5 14.4915 0.5 13.2551V6.29979C0.512064 5.8567 0.723661 5.44106 1.07853 5.168L1.07858 5.16807L1.08607 5.16208L6.30077 0.98793L6.30768 0.982394L6.3144 0.976616C7.03262 0.35872 8.09455 0.339505 8.83507 0.931294L8.83658 0.932491L14.1683 5.15978C14.506 5.44215 14.7 5.85717 14.7 6.29348V13.2623C14.7 13.8556 14.4622 14.4252 14.0379 14.8453C13.6135 15.2656 13.0373 15.5015 12.4363 15.5H12.4351H10.8663C10.7369 15.5 10.6135 15.4487 10.5234 15.3586C10.4335 15.2686 10.3841 15.1475 10.385 15.0223H10.385V15.0187V12.5725C10.385 12.1388 10.2114 11.7237 9.90369 11.4182C9.59605 11.1128 9.17958 10.9418 8.74608 10.9418H6.44674C5.54504 10.9418 4.80782 11.6685 4.80782 12.5725Z" fill="white" stroke="black"/>
</svg>
