<svg width="13" height="16" viewBox="0 0 13 16" fill="none" xmlns="http://www.w3.org/2000/svg">
<path d="M6.4 11.0391C8.12331 11.0391 9.65234 11.1811 10.7347 11.5645C11.2725 11.7549 11.665 11.9931 11.9194 12.2708C12.1636 12.5373 12.3 12.8599 12.3 13.2792C12.3 13.6976 12.1631 14.0185 11.9183 14.2831C11.6629 14.5593 11.2689 14.7955 10.7295 14.9839C9.64418 15.3629 8.11459 15.5 6.4 15.5C4.6771 15.5 3.14806 15.358 2.06562 14.9747C1.52773 14.7842 1.13516 14.546 0.880632 14.2683C0.636427 14.0018 0.5 13.6792 0.5 13.26C0.5 12.8415 0.636875 12.5206 0.881653 12.256C1.13708 11.9799 1.53106 11.7437 2.07047 11.5553C3.15582 11.1762 4.68541 11.0391 6.4 11.0391ZM6.4 0.5C8.47537 0.5 10.1352 2.15959 10.1352 4.23284C10.1352 6.30621 8.47525 7.96649 6.4 7.96649C4.32549 7.96649 2.66481 6.30615 2.66481 4.23284C2.66481 2.15966 4.32537 0.5 6.4 0.5Z" fill="white" stroke="black"/>
</svg>
