<svg width="16" height="16" viewBox="0 0 16 16" fill="none" xmlns="http://www.w3.org/2000/svg">
<g id="Iconly/Bold/Search">
<g id="Search">
<path id="Vector" d="M13.2583 12.8782L13.2766 12.8963L13.2966 12.9125L15.3404 14.5622L15.4088 14.6174C15.5515 14.8393 15.5267 15.1405 15.3345 15.3349C15.1198 15.5519 14.7758 15.555 14.5574 15.3442L12.8733 13.4141L12.8733 13.414L12.8708 13.4111L12.8178 13.3514C12.7718 13.2894 12.7461 13.2129 12.7461 13.1331C12.7461 13.0361 12.7841 12.9442 12.8501 12.877C12.9644 12.7647 13.1445 12.7651 13.2583 12.8782ZM6.86211 0.5C8.54771 0.5 10.1654 1.17676 11.3589 2.38315C12.5526 3.58972 13.2242 5.22731 13.2242 6.93594C13.2242 10.4955 10.3708 13.3719 6.86211 13.3719C3.35345 13.3719 0.5 10.4955 0.5 6.93594C0.5 3.37641 3.35345 0.5 6.86211 0.5Z" stroke="black"/>
</g>
</g>
</svg>
