<svg width="12" height="12" viewBox="0 0 12 12" fill="none" xmlns="http://www.w3.org/2000/svg">
<path d="M6 1.125C5.99766 1.125 5.99766 1.125 5.99531 1.125C5.99531 1.125 5.99531 1.125 5.99297 1.125C5.99062 1.125 5.98828 1.125 5.98828 1.125C3.3 1.13203 1.125 3.31172 1.125 6C1.125 8.68828 3.3 10.868 5.98828 10.875C5.99062 10.875 5.99297 10.875 5.99297 10.875H5.99531C5.99766 10.875 5.99766 10.875 6 10.875C8.69297 10.875 10.875 8.69297 10.875 6C10.875 3.30703 8.69297 1.125 6 1.125ZM6.19453 4.04297C6.7125 4.02891 7.21406 3.96094 7.69922 3.84375C7.84453 4.41797 7.93594 5.08125 7.95 5.80781H6.19453V4.04297ZM6.19453 3.65156V1.54688C6.71953 1.69219 7.25391 2.39297 7.59141 3.46875C7.14141 3.57656 6.675 3.6375 6.19453 3.65156ZM5.80547 1.54219V3.65391C5.32031 3.63984 4.84922 3.57656 4.39688 3.46641C4.73906 2.38359 5.27578 1.67813 5.80547 1.54219ZM5.80547 4.04297V5.80547H4.03828C4.05234 5.07891 4.14375 4.41562 4.28906 3.84141C4.77656 3.95859 5.28516 4.02891 5.80547 4.04297ZM3.64453 5.80547H1.52109C1.56328 4.80234 1.93828 3.88359 2.53594 3.15703C2.96953 3.39609 3.43125 3.59297 3.91406 3.73828C3.75469 4.35938 3.66094 5.06016 3.64453 5.80547ZM3.64453 6.19453C3.65859 6.9375 3.75234 7.64062 3.91172 8.26172C3.42891 8.40938 2.96953 8.60391 2.53359 8.84297C1.93594 8.11641 1.56328 7.19766 1.51875 6.19453H3.64453ZM4.03828 6.19453H5.80547V7.95469C5.28516 7.96875 4.77656 8.03906 4.28906 8.15859C4.14375 7.58438 4.05234 6.92109 4.03828 6.19453ZM5.80547 8.34609V10.4602C5.27578 10.3219 4.73906 9.61875 4.39688 8.53594C4.84922 8.42344 5.32031 8.36016 5.80547 8.34609ZM6.19453 10.4531V8.34375C6.675 8.35781 7.14141 8.42109 7.59375 8.52891C7.25391 9.60703 6.72187 10.3078 6.19453 10.4531ZM6.19453 7.95469V6.19453H7.95C7.93594 6.91875 7.84453 7.58203 7.69922 8.15625C7.21406 8.03906 6.7125 7.96875 6.19453 7.95469ZM8.34141 6.19453H10.4789C10.4367 7.19766 10.0617 8.11406 9.46406 8.84297C9.02578 8.60156 8.56172 8.40469 8.07422 8.25703C8.23359 7.63594 8.32734 6.9375 8.34141 6.19453ZM8.34141 5.80547C8.32734 5.0625 8.23359 4.36172 8.07656 3.74063C8.56406 3.59297 9.02812 3.39609 9.46406 3.15703C10.0617 3.88359 10.4367 4.80234 10.4789 5.80781H8.34141V5.80547ZM9.19687 2.85703C8.80781 3.06328 8.4 3.23438 7.97109 3.36328C7.74375 2.62969 7.42266 2.03203 7.04531 1.63828C7.875 1.8375 8.61562 2.26875 9.19687 2.85703ZM4.94063 1.64297C4.56328 2.03437 4.24453 2.63203 4.01953 3.36094C3.59531 3.23203 3.18984 3.06328 2.80547 2.85703C3.37969 2.27109 4.11563 1.84219 4.94063 1.64297ZM2.80312 9.14062C3.1875 8.93437 3.59531 8.76562 4.01719 8.63672C4.24453 9.36797 4.56328 9.96328 4.94063 10.357C4.11563 10.1578 3.37969 9.72891 2.80312 9.14062ZM7.04531 10.3617C7.425 9.96797 7.74375 9.37031 7.97344 8.63437C8.40234 8.76328 8.81016 8.93437 9.19922 9.14062C8.61797 9.73125 7.875 10.1625 7.04531 10.3617Z" fill="#406882"/>
</svg>
