<svg width="11" height="11" viewBox="0 0 11 11" fill="none" xmlns="http://www.w3.org/2000/svg">
<path d="M2.22751 9.18499L2.23524 9.19271L2.24343 9.19994C3.08298 9.94072 4.26426 10.4333 5.5 10.4333C6.73293 10.4333 7.91165 9.94296 8.75084 9.20499C8.93054 9.0583 9.04104 8.85669 9.05217 8.63415C9.06305 8.41654 8.97711 8.21302 8.82964 8.05988C8.28068 7.41493 7.58234 6.96895 6.74459 6.72256L6.61248 6.6837L6.48931 6.74528C6.16863 6.90562 5.85532 6.98333 5.5 6.98333C5.14468 6.98333 4.83137 6.90562 4.51069 6.74528L4.38447 6.68217L4.24977 6.72427C3.4678 6.96863 2.7234 7.41071 2.17042 8.05982C1.82046 8.42294 1.95908 8.91656 2.22751 9.18499ZM0.35 5.5C0.35 2.6683 2.6683 0.35 5.5 0.35C8.3317 0.35 10.65 2.6683 10.65 5.5C10.65 8.3317 8.3317 10.65 5.5 10.65C2.6683 10.65 0.35 8.3317 0.35 5.5ZM7.68333 4.125C7.68333 2.72283 6.7685 1.48333 5.5 1.48333C4.2315 1.48333 3.31667 2.72283 3.31667 4.125C3.31667 5.52717 4.2315 6.76667 5.5 6.76667C6.7685 6.76667 7.68333 5.52717 7.68333 4.125Z" fill="white" stroke="#406882" stroke-width="0.7"/>
</svg>
